<?xml version="1.0" encoding="utf-8"?>
<!-- Generator: Adobe Illustrator 23.0.1, SVG Export Plug-In . SVG Version: 6.00 Build 0)  -->
<svg version="1.1" id="Layer_1" xmlns="http://www.w3.org/2000/svg" xmlns:xlink="http://www.w3.org/1999/xlink" x="0px" y="0px"
	 viewBox="0 0 500.1 500" style="enable-background:new 0 0 500.1 500;" xml:space="preserve">
<style type="text/css">
	.st0{fill:#263958;}
	.st1{fill:#FFFFFF;stroke:#000000;stroke-width:2.6035;stroke-miterlimit:10;}
	.st2{fill:none;stroke:#000000;stroke-width:2.6035;stroke-miterlimit:10;}
	.st3{fill:#DC3545;}
</style>
<path class="st0" d="M268.2,334.5l68.6,67.2c0,0,7.8-90.6-39.1-106.2L268.2,334.5z"/>
<path class="st0" d="M44.7,182.2l79.7,44.5l45.3-34.4C169.6,192.4,77.5,136.1,44.7,182.2z"/>
<path class="st1" d="M408.6,9.6c0,0,37.5,196.8-139,345.2c0,0-110.9-54.7-145.3-128.1C124.3,226.7,254,9.6,408.6,9.6z"/>
<line class="st2" x1="377.4" y1="39.3" x2="218.1" y2="265.8"/>
<path class="st0" d="M231.6,296.8l3.6-1.4c0,0,32.9,75-25,106.2c0,0,9.8-50.8,6.1-79.8C215,311,221.4,300.7,231.6,296.8z"/>
<path class="st0" d="M178.8,247.2l-0.8-4.1c0,0-75.2-2.1-69.2,68c0,0,34.2-30.3,58.5-38.5C176.4,269.5,181.1,259,178.8,247.2z"/>
<path class="st3" d="M169.6,323.6c0,0-62.5,0-81.2,56.2l28.1-7.8c0,0-43.4,66.6-51.5,117.2c0,0,78.9-48.5,85.9-96.9v45.3
	C150.9,437.6,193.1,382.9,169.6,323.6z"/>
<polygon class="st3" points="364.9,182.2 347.9,213.8 353.2,217.9 370.2,189.8 "/>
<polygon class="st3" points="250.4,107.8 226.6,134.6 220.9,131.1 241.5,105.4 "/>
<polygon class="st3" points="384.4,126.9 377.4,155 383.4,155.8 391.4,130.2 "/>
<polygon class="st3" points="300.3,63.9 279,83.4 275.3,78.6 294.1,59.3 "/>
</svg>
